<?xml version="1.0" ?><!DOCTYPE svg  PUBLIC '-//W3C//DTD SVG 1.1//EN'  'http://www.w3.org/Graphics/SVG/1.1/DTD/svg11.dtd'><svg enable-background="new 0 0 91 91" height="91px" id="Layer_1" version="1.1" viewBox="0 0 91 91" width="91px" xml:space="preserve" xmlns="http://www.w3.org/2000/svg" xmlns:xlink="http://www.w3.org/1999/xlink"><g><path d="M17.204,85.951h58.43c0.535,0,1.027-0.299,1.275-0.773c0.248-0.477,0.209-1.051-0.098-1.488l-9.348-13.352h4.203   c0.537,0,1.028-0.3,1.275-0.775c0.248-0.475,0.211-1.049-0.098-1.487l-11.301-16.14h4.222c0.536,0,1.028-0.299,1.274-0.774   c0.248-0.476,0.211-1.05-0.098-1.487l-5.743-8.204c-0.001,0-0.001-0.001-0.002-0.002L47.597,22.042c-0.537-0.77-1.818-0.77-2.355,0   L25.896,49.674c-0.309,0.438-0.346,1.012-0.098,1.487c0.246,0.476,0.738,0.774,1.274,0.774h4.221l-11.3,16.14   c-0.309,0.438-0.346,1.013-0.098,1.487c0.246,0.476,0.738,0.775,1.275,0.775h4.203l-9.347,13.352   c-0.308,0.438-0.345,1.012-0.098,1.488C16.177,85.652,16.669,85.951,17.204,85.951z M72.872,83.075h-3.271   c-17.525-2.265-24.136-9.331-26.352-12.737h20.705L72.872,83.075z M46.419,25.372L57.22,40.798   c-10.527-0.432-15.774-4.178-17.549-5.789L46.419,25.372z M38.003,37.391c2.533,2.212,8.904,6.337,21.193,6.337   c0.024,0,0.051,0,0.074,0l3.734,5.331h-4.221h-24.73h-4.221L38.003,37.391z M58.036,51.936l1.213,1.732   c-3.385,1.85-13.622,6.589-30.967,7.58l6.52-9.313H58.036z M26.198,64.225c19.857-0.738,31.166-6.166,34.713-8.182l7.995,11.418   h-4.204H28.136h-4.205L26.198,64.225z M28.884,70.338h11.047c1.17,2.445,5.186,8.711,16.756,12.737H19.966L28.884,70.338z"/><path d="M41.462,15.149l-1.691,5.32c-0.18,0.563,0.023,1.18,0.502,1.528c0.24,0.176,0.525,0.262,0.809,0.262   c0.281,0,0.562-0.085,0.801-0.256l4.537-3.252l4.537,3.252c0.48,0.343,1.131,0.343,1.609-0.006   c0.479-0.348,0.682-0.965,0.502-1.528l-1.691-5.32l4.495-3.311c0.478-0.352,0.676-0.969,0.491-1.532   c-0.182-0.564-0.706-0.946-1.299-0.95l-5.581-0.034l-1.759-5.299c-0.188-0.563-0.713-0.941-1.305-0.941   c-0.594,0-1.119,0.38-1.305,0.941l-1.76,5.299l-5.58,0.034c-0.593,0.004-1.115,0.386-1.299,0.95   c-0.184,0.563,0.014,1.18,0.492,1.532L41.462,15.149z M44.358,12.066c0.588-0.004,1.11-0.382,1.296-0.941l0.765-2.304l0.764,2.304   c0.186,0.559,0.708,0.938,1.297,0.941l2.426,0.016l-1.953,1.438c-0.475,0.349-0.674,0.962-0.495,1.523l0.735,2.313l-1.973-1.415   c-0.24-0.171-0.521-0.256-0.801-0.256c-0.281,0-0.563,0.085-0.801,0.256l-1.971,1.414l0.734-2.312   c0.178-0.562-0.021-1.174-0.495-1.523l-1.953-1.438L44.358,12.066z"/></g></svg>